<svg xmlns="http://www.w3.org/2000/svg" class="art-vector-art" viewBox="0 0 1600 900" fill="none" preserveAspectRatio="xMidYMid slice">
  <rect width="1600" height="900" fill="#111625" />
  
  <!-- Emotes Grid Layout -->
  <g transform="translate(320, 150)">
    <!-- Row 1 -->
    <rect x="0" y="0" width="260" height="260" rx="36" fill="#1a2238" stroke="#8a9cf5" stroke-width="4" />
    <circle cx="130" cy="115" r="70" fill="#8a9cf5" opacity="0.3" />
    <circle cx="105" cy="110" r="12" fill="#ffffff" />
    <circle cx="155" cy="110" r="12" fill="#ffffff" />
    <path d="M108,150 Q130,175 152,150" stroke="#ffffff" stroke-width="6" fill="none" stroke-linecap="round" />

    <rect x="350" y="0" width="260" height="260" rx="36" fill="#1a2238" stroke="#5567e2" stroke-width="4" />
    <circle cx="480" cy="115" r="70" fill="#5567e2" opacity="0.3" />
    <circle cx="455" cy="105" r="14" fill="#ffffff" />
    <circle cx="505" cy="105" r="14" fill="#ffffff" />
    <ellipse cx="480" cy="155" rx="18" ry="22" fill="#ffffff" />

    <rect x="700" y="0" width="260" height="260" rx="36" fill="#1a2238" stroke="#8a9cf5" stroke-width="4" />
    <polygon points="830,55 850,95 890,105 850,120 830,160 810,120 770,105 810,95" fill="#8a9cf5" />

    <!-- Row 2 -->
    <rect x="0" y="320" width="260" height="260" rx="36" fill="#1a2238" stroke="#5567e2" stroke-width="4" />
    <text x="130" y="480" fill="#ffffff" font-size="72" font-family="sans-serif" font-weight="900" text-anchor="middle">GG!</text>

    <rect x="350" y="320" width="260" height="260" rx="36" fill="#1a2238" stroke="#8a9cf5" stroke-width="4" />
    <path d="M430,470 L480,380 L530,470 Z" fill="#8a9cf5" />

    <rect x="700" y="320" width="260" height="260" rx="36" fill="#1a2238" stroke="#5567e2" stroke-width="4" />
    <circle cx="830" cy="450" r="70" fill="#252f4d" />
    <circle cx="800" cy="425" r="22" fill="#8a9cf5" />
    <circle cx="860" cy="425" r="22" fill="#8a9cf5" />
  </g>

  <text x="100" y="830" fill="#8a9cf5" font-size="32" font-family="monospace" font-weight="bold" letter-spacing="3">EMOTE SUITE // TWITCH & LINE READY</text>
</svg>
